<svg width="48" height="48" xmlns="http://www.w3.org/2000/svg">
  <defs>
    <linearGradient x1="50%" y1="0%" x2="50%" y2="100%" id="a">
      <stop stop-color="#0C5CE5" offset="0%"/>
      <stop stop-color="#0853D3" offset="100%"/>
    </linearGradient>
  </defs>
  <g fill="none" fill-rule="evenodd">
    <circle fill="url(#a)" cx="24" cy="24" r="24"/>
    <path d="M27.386 12.035c.933.263 1.83.635 2.673 1.107.31.174.494.51.471.865l-.163 2.546a.185.185 0 00.054.143l.872.872c.038.038.09.057.143.054l2.555-.16a.927.927 0 01.863.471c.473.846.847 1.745 1.111 2.68a.924.924 0 01-.277.944l-1.92 1.695a.185.185 0 00-.063.14v1.217c0 .053.023.104.063.139l1.92 1.695a.924.924 0 01.277.943 12.361 12.361 0 01-1.111 2.68.924.924 0 01-.863.471l-2.555-.159a.185.185 0 00-.143.054l-.861.86a.185.185 0 00-.054.144l.16 2.555a.924.924 0 01-.471.863c-.846.473-1.745.847-2.68 1.111a.924.924 0 01-.944-.277l-1.695-1.92a.185.185 0 00-.14-.063h-1.217a.185.185 0 00-.139.063l-1.695 1.92a.924.924 0 01-.943.277 12.361 12.361 0 01-2.68-1.111.924.924 0 01-.471-.863l.159-2.555a.185.185 0 00-.054-.143l-.86-.861a.185.185 0 00-.144-.054l-2.555.16a.924.924 0 01-.863-.471 12.361 12.361 0 01-1.111-2.68.924.924 0 01.277-.944l1.92-1.695a.185.185 0 00.063-.14v-1.217a.185.185 0 00-.063-.139l-1.92-1.695a.924.924 0 01-.277-.943c.264-.936.638-1.835 1.111-2.68a.924.924 0 01.863-.471l2.555.159a.185.185 0 00.143-.054l.861-.86a.185.185 0 00.054-.144l-.16-2.555a.924.924 0 01.471-.863c.844-.472 1.74-.845 2.674-1.11a.924.924 0 01.945.28l1.687 1.916c.035.04.086.063.14.063h1.23a.185.185 0 00.139-.063l1.695-1.92a.924.924 0 01.943-.277zM24 18a6 6 0 100 12 6 6 0 000-12z" fill="#FFF" fill-rule="nonzero"/>
  </g>
</svg>
