<svg width="48" height="48" xmlns="http://www.w3.org/2000/svg">
  <defs>
    <linearGradient x1="50%" y1="0%" x2="50%" y2="100%" id="a">
      <stop stop-color="#0C5CE5" offset="0%"/>
      <stop stop-color="#0853D3" offset="100%"/>
    </linearGradient>
  </defs>
  <g fill="none" fill-rule="evenodd">
    <circle fill="url(#a)" cx="24" cy="24" r="24"/>
    <path d="M23.976 12c-5.874 0-10.88 4.376-11.82 10.333-.94 5.956 2.464 11.734 8.036 13.64.594.108.815-.266.815-.59v-2.096c-3.334.747-4.043-1.644-4.043-1.644a3.2 3.2 0 00-1.322-1.8c-1.092-.768.077-.749.077-.749a2.52 2.52 0 011.84 1.27 2.55 2.55 0 001.538 1.237c.653.184 1.35.093 1.938-.253a2.717 2.717 0 01.767-1.644c-2.673-.275-5.489-1.328-5.489-6.042a4.826 4.826 0 011.255-3.307 4.53 4.53 0 01.115-3.247s1.005-.325 3.295 1.26a11.73 11.73 0 012.998-.424 11.73 11.73 0 012.998.413c2.29-1.584 3.285-1.25 3.285-1.25a4.5 4.5 0 01.125 3.258 4.816 4.816 0 011.255 3.297c0 4.724-2.797 5.757-5.46 6.062a3 3 0 01.805 2.283v3.376c0 .423.21.708.823.59 5.582-1.909 8.987-7.7 8.034-13.665-.954-5.964-5.982-10.333-11.865-10.308z" fill="#FFF" fill-rule="nonzero"/>
  </g>
</svg>
