<svg width="48" height="48" xmlns="http://www.w3.org/2000/svg">
  <defs>
    <linearGradient x1="50%" y1="0%" x2="50%" y2="100%" id="a">
      <stop stop-color="#0C5CE5" offset="0%"/>
      <stop stop-color="#0853D3" offset="100%"/>
    </linearGradient>
  </defs>
  <g fill="none" fill-rule="evenodd">
    <circle fill="url(#a)" cx="24" cy="24" r="24"/>
    <path d="M21 12a9 9 0 017.032 14.617L30 28.585l.293-.292a1 1 0 011.32-.083l.094.083 4 4a1 1 0 01.083 1.32l-.083.094-2 2a1 1 0 01-1.32.083l-.094-.083-4-4a1 1 0 01-.083-1.32l.083-.094.292-.293-1.968-1.968A9 9 0 1121 12zm0 3a6 6 0 100 12 6 6 0 000-12z" fill="#FFF" fill-rule="nonzero"/>
  </g>
</svg>
