<svg width="48" height="48" xmlns="http://www.w3.org/2000/svg" xmlns:xlink="http://www.w3.org/1999/xlink">
  <defs>
    <linearGradient x1="50%" y1="0%" x2="50%" y2="100%" id="a">
      <stop stop-color="#0C5CE5" offset="0%"/>
      <stop stop-color="#0853D3" offset="100%"/>
    </linearGradient>
    <filter x="-165.3%" y="-258.1%" width="430.6%" height="745.2%" filterUnits="objectBoundingBox" id="d">
      <feOffset dy="40" in="SourceAlpha" result="shadowOffsetOuter1"/>
      <feGaussianBlur stdDeviation="60" in="shadowOffsetOuter1" result="shadowBlurOuter1"/>
      <feColorMatrix values="0 0 0 0 0.0196078431 0 0 0 0 0.0509803922 0 0 0 0 0.160784314 0 0 0 0.06 0" in="shadowBlurOuter1"/>
    </filter>
    <circle id="b" cx="24" cy="24" r="12"/>
    <path d="M27.962 24.22l.014.032c.285.678.396.41.333.766l-.022.116c-.101.518.128.428.268.292l.058-.059c.023-.026-.057.02.141-.441l.017-.039c.264-.606.182-.827.324-.692l.067.067c.135.131.217.172.467.259l.041.014c.299.101.406.073.506.257l.012.025c.102.207.071-.058.617.028l.04.007c.588.106 1.418-.212 1.314.141-.036.124-.085.156-.113.163l-.006.001.003.001c.031.01.108.046.26.165l.345.276c.221.174.313.225.514.276.276.071.518.036.933.46l.075.074c.353.354.45.397.548.595.103.212.276.071.45.283.172.212.414.212.656.212.216 0 .046-.17.28-.003l.1.073c.369.274.64.315.814.83l.016.052c.173.565.519.53.242 1.094-.276.565-.83.812-.588.777.242-.036.692-.247.83-.212.131.033.2-.091.383-.015l.032.015c.187.095.233-.095.216.046l-.008.06c-.026.185-.033.093-.035.139v.138l-.001.01.005-.022c.022-.077.095-.209.312-.166l.03.007c.405.103.183-.198.625.217l.031.03c.485.459.485.318.657.564.168.24.335-.116.44-.043l.01.008c.1.101.388.041.685.098l.041.008c.296.067.122-.186.523.064l.065.042c.469.308.939.218 1.061.47l.01.024c.104.282.381.176.52.353.137.176.207-.07.345.176.138.247.553.177.484.423-.07.248.103.106.034.46-.066.34-.294.878-.497 1.042l-.021.016c-.208.141-.207.318-.346.494-.138.177-.104-.176-.277.318-.165.473-.14.558-.26.968l-.038.127c-.105.336-.019-.045-.116.387-.104.458-.035.74-.138 1.27l-.02.102c-.074.397-.058.448-.106.74l-.013.076c-.069.388.173-.177-.138.635l-.077.197c-.24.611-.278.61-.372.932l-.015.05-.03.113c-.023.08-.015-.04-.301.12l-.067.037c-.24.137-.175.125-.384.19l-.172.055c-.433.136-.964.272-1.156.313l-.019.004c-.173.035-.864.247-.657.67l.037.076c.17.359.158.452-.037.948-.2.512-.498.694-.518.93v.023c0 .247-.139.494-.173.67-.035.177.31-.176-.104.353-.404.515-.447.395-.577.682l-.036.082c-.095.228.016.03-.113.26-.138.246-.484.352-.484.352l.003.023c.003.042 0 .127-.09.091l-.017-.008c-.138-.07-.104.035-.622-.106-.519-.141-.588-.494-.657-.247-.07.247.034.389.346.635.31.248.83.318.691.565l-.105.185c-.046.08-.07.112-.137.203-.104.142.138.036-.104.142-.242.105-.38.564-.484.564-.103 0-.173.177-.311.106-.138-.07-.484-.317-.553-.176-.068.137-.201-.162-.175.282l.002.035c.035.494.104.776-.07.882-.172.106-.587 0-.587 0l-.07-.176-.241.07-.008.037c-.02.103-.065.4.077.458.173.07.138.14.311.352.138.17.1.452.079.558l-.01.042s0 .097-.15.259l-.023.024a1.1 1.1 0 00-.27.403l-.052.148c-.06.172-.12.428.115.401l.04-.005c.285-.043.503-.176.513.322v.036c0 .565.139.424-.034.812-.173.388-.312.423-.346.776-.032.324.024.38.087.55l.017.05c.069.212.242.106.069.212s-.691 0-.691 0c-.242-.141-.76-.388-.934-.53-.172-.14-.691-.917-.691-.917l-.38-.741-.044-.057c-.11-.15-.386-.549-.302-.72.104-.211.311-.352.311-.458 0-.106.207-.388.034-.494l-.038-.024c-.135-.09-.143-.143-.238-.435-.1-.303-.104-.575-.225-.66l-.017-.01c-.139-.07-.242-.53-.38-.565-.139-.035-.277-.282-.277-.282l-.208-2.865c-.005-.094-.066-1.21-.13-1.542l-.008-.04c-.067-.272.092-.84-.052-1.356l-.017-.055c-.168-.513.022-1.125-.06-1.355l-.01-.021c-.1-.205.059-.774-.025-1.322l-.009-.054c-.104-.565.415-1.27 0-1.482-.403-.206-.121-.511-.42-.529h-.03c-.33 0-.565-.162-.856-.391l-.405-.32c-.269-.214-.56-.45-.689-.576l-.02-.02c-.173-.176-.726-.635-.899-.776-.166-.135-.331-.692-.467-.893l-.017-.025c-.138-.176-.207-.705-.415-1.023-.207-.317-.484-.846-.553-.952l-.024-.033c-.146-.194-.806-.99-.806-.99l.07-.565.084-.055c.144-.095.416-.29.365-.369-.07-.106.034-.212-.208-.423a.532.532 0 01-.02-.758l.02-.019c.208-.176.519-.74.519-.74l.518-.883.048-.056c.105-.127.348-.445.366-.691l.001-.03c0-.31.562-.519.264-.792l-.022-.019c-.346-.282-.173-.53-.276-.741-.1-.204-.04-.343.244-.542l.032-.023c.311-.211.865-.988.865-.988l.152-.037c.13-.03.304-.069.366-.069.102 0 .271-1.095.574-.42zm92.546 13.063l.212-1.107c.07-.38.14-.035.176.034l.013.022c.043.07.135.18.199.428.07.277.247.346.352.588.106.243.177.52.283.727.105.208.105.52.14.658.034.132.003.584-.093.682l-.012.01c-.076.05.118.152.236.206l.081.036s.405.066.521.684l.008.043c.103.64.374.624.453.847l.006.018c.07.242.282.173.6.311.307.135.018.269.193.592l.018.031c.204.334.048.667.067.907l.003.028c.036.242-.07.45-.07.588 0 .133-.262.491-.313.888l-.004.046c-.035.401-.167.447-.24.544l-.007.01c-.07.101-.337.3-.709.852l-.032.048c-.378.573-.388.457-.779.737l-.102.076c-.331.248-.261.234-.377.352l-.159.157a7.548 7.548 0 00-.34.36l-.092.105c-.152.168-.362.322-1.37.773l-.733.32c-.618.267-.086.004-.175-.111-.1-.132-.424-.076-.607-.16l-.027-.014c-.177-.103-.247.104-.459.139-.211.035-.458-.208-.6-.346-.14-.139-.176-.035-.14-.277.035-.242-.142-.173 0-.485.14-.311-.212-.484-.212-.484l-.017-.027c-.035-.062-.109-.218-.054-.354.07-.173.282-.554.282-.726 0-.168-.23.15-.342.171l-.01.001c-.08 0-.485.239-.676.354l-.1.062-.424.034.02-.226a5.45 5.45 0 00.016-.327c0-.168-.495-.303-.687-.625l-.018-.033c-.172-.337-.545.08-.792.007l-.02-.007c-.236-.099-.73.087-1.02.042l-.038-.007c-.271-.067-.38.283-.607.31l-.028.001c-.238 0-.738.322-.995.252l-.028-.01c-.246-.103-.458.38-.599.312-.141-.07-.67.104-.917.104s-.423.207-.705.207c-.283 0-.635.173-.812.208-.15.03-.48.034-.574.035h-.026l-.025-.023c-.063-.056-.221-.206-.221-.289 0-.103.07-.173.246-.138.173.034.076-.69.137-.95l.005-.019c.07-.242-.036-1.003-.106-1.211-.069-.201.062-1.052.134-1.262l.007-.019c.07-.173.14-1.66.247-1.8l.02-.017a.713.713 0 01.263-.155l.048-.013c.124-.037.272-.105.445-.266l.035-.033c.212-.208.353-.242.565-.277.211-.034.282-.138.6-.173l.08-.009c.222-.027.176-.045.59-.233l.099-.044c.356-.158.447-.176.711-.317l.036-.02c.317-.173.212-.207.317-.242.106-.034.141-.277.247-.554.101-.263.17-.244.237-.391l.01-.024c.068-.167.038.085.13.134l.011.005c.106.034.141.207.247.172.105-.034.105-.38.14-.519.036-.138.318-.138.424-.277.106-.138.106-.276.247-.45.14-.172.317-.242.53-.345.21-.104.352.138.493.311.13.16-.01.201-.032.207h-.004l.083.034c.195.079.68.264.764.209.106-.07-.106-.173.035-.554l.023-.06c.115-.294.095-.082.295-.148l.065-.021c.093-.033-.021-.014.157-.197l.024-.024c.247-.242.424-.519.811-.623l.213-.057c.02-.004-.046.02.023.022h.011c.136 0 .239.032.588.065l.294.026c.125.01.188.013.263.013h.09c.176 0 .176.208.176.208l-.044.068c-.064.1-.178.284-.203.382-.035.139-.07.45-.105.588-.036.139.14.381.246.381.106 0 .212.277.353.311.141.035.424.312.53.416.105.104.317.034.458.069.132.033.233-.148.39-.142l.033.003c.17.034.275-.384.377-.569l.033-.056c.118-.207.366-.724.366-.724zM90.368-3.994l.168-.004c1.109-.022.252.139.807.208l.025.003c.624.07.59-.104 1.005-.07.416.035.589.14.762.21.173.069-.07.242-.173.277-.104.035-.312.313-.485.591-.164.263.292.277 1.103.19l.144-.016c.9-.104.97.139 1.213.243.242.104.935.174 1.247.14.312-.035.9-.314 1.385-.314.468 0 .485.097.796.073l.036-.003c.346-.035.346.104.762.313.396.198.729.176 1.149.234l.16.023c.356.05.38.02.7.02.346 0 .52.07.624.14.104.07.658.035.796.035.139 0 .347-.278.555-.417l.067-.044c.126-.077.09-.04.21-.374l.017-.044c.12-.3.104.117.503.184.415.069.38.138.589.173.207.035.415.278.588.313.174.035.9.07 1.213.07l.072-.001c.325-.004.926-.03 1.458-.003l.063.003c.571.034 1.077-.063 1.328.185l.023.024c.243.278.831.14 1.697.209.834.067 1.476.166 1.955.297l.15.042c.413.113.57.12.667.217.104.104.312-.556.45-.591.137-.034 3.107.54 3.419.556h.01c.243 0 .693.278 1.005.383.312.104.658 0 1.04-.035.38-.035 1.593.243 1.628.382.034.14.588.556.692.626.102.068-.723.036-.987-.095l-.017-.01c-.243-.138-1.42-.416-1.593-.382-.174.035-.209.418-.382.383-.128-.026-.294.062-.372.11l-.044.029 1.003.575c.305.172.765.421.833.398.101-.034-.155.323-.266.284l-.01-.006c-.071-.047-.332-.03-.493-.015l-.106.012-.215.235-.364.394c-1.005 1.077-.416.07-.486-.209-.069-.278-.38.14-.588.209l-.124.042c-.297.105-.86.352-.742.827.138.556.415.104.831.486l.062.059c.336.321.192.317.388.81.208.522-.104.765-.069 1.078.033.292.005.463 0 .767v.067c0 .34-.132.149-.396-.054l-.02-.016c-.277-.208-.207-.208-.588-.556-.382-.347-.45-.243-.52-.764-.07-.522-.312-.105-.693-.591l-.062-.079c-.301-.376-.318-.343-.319-.807v-.088c0-.59.242-.556.416-.8.167-.234-.118-.566-.138-.87l-.001-.033c0-.245-.19-.192-.274-.157l-.038.018-.138-.139-.009.004c-.03.015-.141.083-.372.343-.277.313-.624.07-.797-.173-.173-.244-.416.139-.624.382-.207.244.07.452-.207.904l-.032.05c-.244.374-.233.05-.765-.05-.528-.1-1.15-.073-1.597-.22l-.066-.023c-.438-.17-.974-.076-1.131.153l-.013.02c-.138.244-.692.591-.692.591l-.025.045c-.077.148-.298.65-.183 1.346.136.82.239.162.44.403l.01.014c.208.278.624-.035 1.524.07l.145.017c.738.094.736.176.95.55l.068.115c.206.348.322.486.674.743.38.278-.07.868.034 1.25.104.383-.104.627.07.627.173 0-.485.973-.485 1.181 0 .209-.105.14-.105.14l-.016.007c-.044.017-.194.055-.607.027-.506-.034-.684.163-.629.43l.005.022c.064.255-.018.364-.192.54l-.05.051c-.208.209-.277.73-.07.904l.047.038c.212.171.547.404 1.062.727.554.347.52.59.52.59l-.049.086c-.102.177-.345.58-.505.714-.209.174-.45.243-.693.104l-.039-.022c-.187-.112-.203-.174-.204-.616v-.126c0-.578-.397-.458-.77-.712l-.104-.074a1.08 1.08 0 00-.152-.094l-.014-.006-.003-.062c-.01-.165-.042-.464-.153-.599l-.016-.018c-.174-.173-.416-.243-.416-.243l-.072.073c-.179.176-.628.587-.656.31-.033-.338-.23-.217-.273-.717l-.004-.048c-.034-.546-.535.013-.652.034h-.006c-.1 0-.263.415-.794 1.092l-.072.09c-.589.73.589.452 1.04.487.331.026.212.089.334.05l.254-.085c.51-.17.254.026.21.263l-.002.015c-.034.243-.138.209-.346.487-.201.268-.046.31.027.5l.007.021c.06.18.303.466.66.856l.281.305c.336.368.313.365.376.334.069-.035.415 1.147.485 1.39.069.243-.208.8-.312 1.112-.104.313-.693 1.008-.9 1.113l-.06.029c-.186.089-.379.158-.91.284-.59.139-.624.451-.624.451l-.268.246-.01.009c.035.012-.15.38-.49.975l-.133.23-.035.06c-.443.736-.312-.008-.312-.685 0-.696-.484-.661-.761-.835-.254-.159-.45.177-.826.714l-.11.155c-.45.626-.104.66.485 1.147.573.474.588.75 1.1 1.5l.043.064c.555.8.243.73.208 1.043-.033.298-.724 1.004-1.03 1.252l-.118.092c-.241.191-.433.375-.653.186-.23-.199-.4-.24-.445-.454l-.006-.033c-.033-.237-.297-.144-.598-.62l-.025-.04c-.303-.507-.377-.193-.508-.59l-.012-.036c-.125-.41-.28-.305-.436-.153l-.049.049c-.167.168-.237.725-.18 1.139l.007.042c.06.359-.086.846-.128.976l-.008.025v-.007c0-.072-.2-.211-.272-.57l-.008-.041c-.063-.381-.04-.443-.035-.795v-.11c0-.45.07.07.035-.486-.033-.535-.13-.555-.293-1.052l-.043-.137c-.152-.466-.193-.343-.391-.41-.208-.07-.416.522-.589.313l-.068-.081c-.094-.118-.104-.167-.105-.518v-.131c0-.556-.346-.278-.728-.73l-.137-.164c-.227-.276-.19-.263-.278-.531-.104-.313-.59-.904-.832-.939-.242-.034-.554-.173-.727-.173h-.048c-.12.005-.102.023-.195-.07-.1-.101-.561.224-.842.497l-.19.191a5.67 5.67 0 00-.561.633c-.174.243-.936.626-1.074.66-.134.034-.396.423-.477.669l-.008.027c-.07.243-.347.556-.45 1.077-.104.521.103.521.103 1.043v.14c-.006.371-.031.346 0 .66.035.347-.173.416-.173.416l-.13.119c-.15.136-.39.345-.459.368l-.11.04c-.146.053-.363.114-.405-.02l-.005-.02c-.032-.198-.253-.27-.275-.516l-.002-.04c0-.265-.188-.404-.236-.747l-.006-.053c-.035-.382-.242-.243-.277-.66-.034-.408-.764-1.746-.958-2.228l-.047-.123c-.128-.34-.061-.236.035-.847.101-.646-.293-.56-.246-.816l.004-.018c.066-.27-.259-.114-.34-.01l-.007.01c-.07.104-.52.382-.797.138-.277-.243-.242-.347-.45-.59l-.052-.06c-.17-.191-.256-.237-.572-.427-.346-.209-.38-.591-.52-.591-.092 0-.369-.14-.543-.232l-.15-.081-.761-.07-.663.035a8.98 8.98 0 01-.997-.059l-.154-.022c-.37-.05-.38 0-.542-.162-.173-.174-.555-.208-.624-.487-.067-.268-.133-.115-.294-.167l-.017-.006c-.163-.065-.234.022-.3-.024l-.012-.011c-.07-.07-.416-.035-.832-.07-.415-.034-.623-.278-1.073-.59-.435-.302-.709-.378-.883-.79l-.018-.045c-.17-.444-.375.323-.117.844l.077.148c.208.4.182.417.213.608.035.208.139.243.277.764.135.506.367.325.602.63l.022.03c.237.34.44.016.935-.096l.035-.007c.52-.105.312-.244.831-.765l.049-.048c.453-.44.202.062.436.5l.082.15c.117.215.154.263.289.397l.183.182c.347.348.485.279.728.487.23.198-.102.49-.374.787l-.042.047c-.265.3-.404.345-.476.531l-.009.026c-.066.2-.39.626-.691.874l-.117.093c-.303.246-.681.597-.681.597l-.228.105c-.321.148-.884.4-1.009.415l-.01.001c-.08 0-.534.269-.9.495l-.486.305-.832.208-.065-.019c-.16-.049-.565-.183-.593-.294-.034-.139-.346-.73-.346-1.181 0-.44-.622-1.109-.72-1.338l-.008-.018c-.069-.209-.52-.626-.658-.834l-.05-.078c-.153-.236-.417-.666-.465-.81l-.004-.016c-.035-.14-.243-.487-.416-.973-.169-.476-.867-1.117-.9-1.276v-.01c0-.14-.417-.522-.52-.522-.105 0-.382.104-.382.104l-.071-.052c-.136-.101-.422-.32-.448-.4l-.004-.01c.009.03.145.446.237.556l.01.01c.101.103.871 1.646.965 1.998l.004.019c.066.294.192.404.293.706l.019.058c.097.326.225.408.412.932l.038.111c.202.608.339.461.505.867l.015.037c.167.437.238.354.493.662l.027.033c.268.337.244.152.526.55l.102.148c.261.37.394.513.584.832.208.347.277.625.381 1.112.104.486.347.139.658.208l.053-.015c.155-.04.652-.146 1.471-.089l.097.006c.886.054.566-.076.7-.11l.047-.011c.168-.037.514-.1.577-.163.069-.07-.277 1.286-.346 1.53-.048.167-.243.433-.36.583l-.11.136c-.06.077-.245.316-.287.414l-.005.014c-.035.104-.52.764-.763 1.112-.242.347-.658.66-.831.8-.158.127-.374.427-.595.77l-.063.099c-.192.302-.666.866-.856 1.088l-.08.093s-.397.491-.531.666l-.023.03c-.104.139-.346.486-.346.625l-.002.041c-.008.164-.052.53.055.7l.016.024c.134.169.171.828.363 1.376l.052.143c.153.434.047.364.1.862l.042.387c.027.259.031.355.032.428v.037c0 .104-.208.556-.208.73 0 .157-.424.456-.685.614l-.077.046c-.243.14-.277.243-.45.348-.111.066-.363.36-.53.563l-.166.205c-.035.05-.38.544-.413 1.039l-.004.066c-.021.425.076.113.143.212.066.1.005.522.061.833l.008.036c.069.313-.104.174-.208.209s-.208.243-.381.348c-.167.1-.367.265-.536.682l-.019.048c-.173.452-.104.278-.208.416a1.26 1.26 0 00-.172.33l-.085.214c-.06.15-.144.307-.331.36-.243.07-.45.452-.659.626l-.042.036c-.143.123-.153.152-.35.333l-.093.083c-.296.265-.405.404-.564.566l-.024.025c-.174.173-.347.313-.485.243-.14-.07-.382.209-.555.209-.173 0-.346.208-.52.208-.173 0-.346.105-.554 0-.208-.104-.485.209-.623.244-.139.034-.52-.209-.52-.209l-.046-.083a5.25 5.25 0 01-.196-.404c-.104-.243-.139-.764-.174-.973-.034-.208-.173-.348-.277-.59l-.06-.141a.39.39 0 00-.05-.088l-.098-.12c-.138-.173-.277-.312-.485-.555-.208-.244-.069-.279-.104-.418-.032-.13-.064-.41-.125-.533l-.013-.023c-.07-.104-.035-.556-.035-.73 0-.174-.035-.313-.104-.59-.069-.279-.207-.349-.242-.557a2.752 2.752 0 00-.282-.78l-.03-.054c-.162-.294-.294-.648-.538-.978l-.05-.065c-.269-.337-.083-.347-.102-.663l-.003-.032c-.032-.329.09-.564.161-.794l.012-.04.208-.313.312-.591.07-.209.024-.155c.024-.141.058-.337.08-.401.032-.1-.092-.388-.193-.565l-.016-.026c-.103-.174 0-.208.035-.452.035-.243-.034-.243-.07-.59-.034-.348-.207-.383-.345-.696l-.087-.196a1.741 1.741 0 01-.156-.5c-.034-.242-.312-.625-.416-.764l-.034-.045a4.882 4.882 0 00-.543-.574l-.046-.041c-.312-.278-.173-.417-.173-.417l.014-.083c.024-.128.077-.37.147-.46l.012-.014c.104-.104.104-.556.138-.764.027-.16-.09-.526-.145-.687l-.028-.078-.104-.139-.312-.347-.023.002c-.07.004-.278.009-.348-.09l-.01-.017c-.058-.118-.267.014-.329.057l-.017.013-.208-.035-.024-.017c-.052-.039-.174-.137-.212-.24l-.007-.021c-.034-.14-.207-.244-.311-.383-.104-.138-.243-.034-.347-.139-.1-.1-.199-.008-.48-.091l-.04-.013c-.311-.104-.242.104-.415.035-.162-.065-.325.053-.459.068l-.026.001c-.139 0-.485.209-.589.209-.104 0-.45.14-.589.14-.138 0-.346.173-.485.138-.138-.035-.242.07-.415-.035-.174-.104-.416.14-.52.209-.1.066-.452.196-.604.147l-.02-.008c-.138-.07-.415.104-.554 0-.13-.098-.349-.074-.462-.155l-.023-.019c-.104-.104-.415-.174-.52-.313-.103-.139-.554-.486-.554-.486l-.142-.159a4.857 4.857 0 01-.273-.328l-.18-.26a2.747 2.747 0 01-.195-.313l-.007-.018c-.034-.104-.311-.59-.346-.695-.035-.104-.277-.313-.416-.452-.138-.14-.554-.382-.554-.382l-.01-.023c-.023-.053-.073-.188-.034-.274l.01-.016c.069-.104-.035-.557-.035-.557l-.019-.029c-.049-.082-.176-.315-.12-.457.07-.174.277-.556.346-.765.064-.191.07-.353.123-.727l.016-.107c.067-.437.004-.386-.063-.571l-.006-.02c-.055-.164-.066-.264-.086-.588l-.018-.316.07-.173.042-.073c.078-.137.245-.446.328-.727l.01-.035c.1-.365.294-.604.371-.715l.01-.015c.065-.097.19-.224.319-.41l.028-.041c.13-.197.291-.393.396-.473l.02-.014c.057-.038.135-.119.193-.183l.1-.113a3.39 3.39 0 01.446-.419l.023-.015c.207-.139.692-.59.692-.59l-.001-.109a2.61 2.61 0 00-.033-.379c-.03-.146.163-.367.224-.432l.018-.02.104-.312.693-.383.346-.347.52-.695.045.068c.058.088.161.232.232.28.104.07.381 0 .624-.174.243-.173.38.035.589 0l.104-.017a.763.763 0 01.485.052c.242.104.485-.104.658-.243.142-.114.237-.088.267-.075l.01.005s.357-.13 1.604-.233l.47-.035c.84-.06.136.015.386-.08.277-.104.623-.138.866-.243.242-.104.104.07.277.174.173.104-.208.348-.243.626l-.007.053c-.032.222-.06.221-.027.642.034.441.398.02.673.519l.02.037c.277.556.554.07.831.243.268.169.537.174 1.057.554l.051.037c.555.417.659.209 1.04.244.38.034.208.173.277-.105.07-.278.381-.312.381-.869v-.088c.008-.424.077-.077.208.054.138.139.485.104.693.347.2.234.657.082 1 .256l.039.022c.346.209 1.178 0 1.628.105.424.098.787.072 1.088.098l.055.006c.297.033.406-.06.565-.1l.024-.004c.158-.032.287-.18.597-.757l.096-.182s.139-.383.243-.939l.013-.074c.077-.456-.05-.215-.083-.447-.033-.235-.423-.048-.543-.098l-.011-.006c-.104-.07-.658.035-.9-.035-.243-.07-.416.07-.694.035-.277-.035-.554 0-.727-.07l-.15-.057a1.145 1.145 0 01-.405-.257l-.034-.033c-.235-.237-.406-.113-.384-.518l.003-.039c.033-.434-.126-.515-.015-.892l.015-.046c.138-.417-.312-.278-.693 0-.381.278-.554-.035-.728-.07-.173-.034-.138.244-.173.383-.035.139.381.556.52.625.139.07-.347.209-.347.209l-.014.116c-.01.082-.02.19-.02.266 0 .14-.139.174-.243.105-.1-.067-.135.122-.23-.015l-.012-.02c-.104-.174-.208-.278-.312-.417-.104-.14-.242-.487-.312-.626s-.277-.278-.346-.348c-.07-.07-.138-.417-.138-.73a.453.453 0 00-.496-.454l-.024.003c-.233.033-.275-.16-.556-.36l-.033-.023c-.298-.2-.248-.272-.546-.46l-.043-.027c-.347-.208-.589-.451-.97-.521-.363-.066-.191.215-.114.452l.01.035c.07.243.139.174.381.452l.099.112c.172.194.247.27.247.27l.085.055c.156.1.487.301.643.327.208.035.624.626.797.73l.086.05c.051.032.007.02-.043.108l-.008.016c-.07.14-.174 0-.347-.104-.167-.101-.14.123-.17.326l-.01.07c-.022.154.007.125.007.125l-.712.749-.05.05c-.104.105-.347-.069-.52-.208-.173-.139.277 0 .45-.07.174-.069.52-.486.59-.625.069-.14-.174-.209-.174-.209l-.059-.061a1.414 1.414 0 01-.212-.271l-.006-.015c-.033-.1-.29-.232-.555-.458l-.034-.029c-.277-.243-.415-.174-.554-.243-.139-.07-.312-.174-.52-.278-.208-.104-.346-.556-.45-.66-.082-.083-.186-.057-.226-.042l-.016.007s-.257.064-.369-.086l-.013-.019c-.103-.173-.242-.034-.173.418.07.451-.9.104-1.074.069-.155-.031-.45.273-.509.336l-.01.012-.416.625-.085.025c-.122.037-.347.11-.47.184-.172.104-.484.625-.38.834.104.209-.035.278-.243.487-.208.208-.9.451-1.074.66-.173.209-.45.139-.727-.035-.266-.166-.468-.077-.576-.1l-.013-.004a7.2 7.2 0 00-.589-.104l-.02-.016a.785.785 0 01-.257-.436c-.07-.313-.07-.522.035-.73.094-.189.074-.549.044-.847l-.01-.092c-.033-.301.03-.57.313-.807l.034-.027c.303-.237.016-.177.416-.142l.034.003c.45.035.727.139 1.108.347.382.21.59-.034.728-.104.139-.07.139.14.312-.174.166-.3-.05-.376.084-.596l.02-.03c.173-.243-.104-.208-.104-.208l-.036-.08c-.056-.123-.166-.347-.241-.372-.098-.033-.196-.158-.38-.288l-.145-.098c-.159-.112-.235-.22.431-.208l.197.005c.838.014-.382-.353-.45-.488-.07-.14.208-.278.59-.209l.064.012c.282.048.13-.01.266-.043l.056-.013c.117-.028.125-.057.336-.086l.074-.009c.299-.033.28-.098.4-.134l.016-.005c.138-.035.207-.313.589-.626l.057-.046c.295-.233.068.039.427-.093.382-.139.104-.556.312-.625l.054-.019c.177-.065.347-.15.69-.185l.241-.021c.012-.003-.154.005-.084-.018.104-.035.312-.418.589-.557.277-.139.07.105.208.209.132.1.423.04.63-.087l.028-.017c.208-.14.416-.07.762 0 .335.067.184.264.33.277h.016c.165 0 .298.095.4-.015l.016-.02c.104-.138.45-.312.624-.312h.048c.177.006.437.035.437.035l.064.01c.07.01.18.025.247.025.104 0 .624-.348.555-.87-.07-.52.38-.173.588-.138.204.034.475-.133.257-.794l-.036-.105c-.193-.6.204-.142.472-.075.277.07.659-.139.832-.313.173-.173-.07-.382-.173-.451-.1-.067-.418.056-.628.038l-.03-.004c-.208-.035-.555.105-.728.105-.173 0-.554-.557-.485-.626.067-.067.36-.588.536-.812l.018-.022c.141-.17.076-.294.046-.334l-.011-.014s-.07-.452-1.108.208l-.336.211c-.595.371-.262.148-.323.45-.069.348-.173.452-.173.8 0 .347.347.52.347.52l-.068.082c-.134.163-.417.532-.417.718 0 .178-.406.485-.626.638l-.181.122c-.091.058-.297.178-.362.12l-.01-.01c-.067-.102-.595-.072-.59-.52l.002-.037c.034-.476-.43-.42-1.164-.906l-.049-.032c-.762-.522-.658.034-.83.208-.174.174-.243-1.077-.036-1.425l.071-.117c.082-.13-.038.112.137.082.208-.034.485-.034.763-.173.277-.14.138-.313.207-.522.068-.202.754-.731.985-.921l.02-.017c.2-.168.886-.628 1.182-.878l.03-.026c.262-.23.555-.367.937-.645l.068-.05c.416-.313.59-.244.9-.278.313-.035.555.034.902.07.346.034.693-.036.935.034l.055.015c.194.051.477.105.998.189l.68.107c.583.096.093.058.692.28.658.243.693.104 1.108.313.416.208.104.382.035.556-.067.168-.493.239-.772.02l-.025-.02c-.277-.244-.52-.035-1.039.07-.512.102.758.745 1.028 1.13l.011.016c.234.37.63-.07 1.31-.633l.16-.13c.617-.493.5-.3 1.024-.541l.035-.016c.589-.279 1.005-.244 1.143-.452.134-.202.789-.209.987-.02l.018.02c.173.208.658-.21.866-.035.208.174.381-.278.9-.522.52-.243.382 0 .832.313.438.305.385.083.604.23l.02.014c.242.173 1.247.312 1.628-.105l.037-.041c.301-.34-.168.007-.438-.519l-.015-.03c-.277-.591-.38-.174-.485-.8-.102-.614.264-.357.703-.348h.025c.436 0 .222.131.46.202l.025.007c.265.067.245.26.364.4l.017.017c.138.14.207.313.242.591.035.278-.069.765.035.834l.012.01c.087.08.05.296.68.13.65-.172-.014-.546-.332-1.622l-.014-.047c-.311-1.113.381.521.763.938.38.417.692-.278.692-.382 0-.104-.173-.313-.311-.869-.137-.546.262-.255.899-.474l.036-.013c.658-.243.693-.138 1.386-.173.67-.034 1.146-.263 1.49-.656l.034-.04c.338-.406.51-.152.648-.139h.01c.136 0 .44-.1 1.667-.137zM80.758 36l.242.75v.41a.9.9 0 01-.103.409c-.07.136-.104.613-.138.818-.032.192-.248.445-.273.616l-.002.031c0 .164-.319.612-.343.737l-.002.013c0 .102-.344.546-.31.648.034.099-.125.514-.106.88l.003.04c.035.375-.275.307-.275.307l-.038.03c-.085.065-.3.209-.513.209a.777.777 0 00-.4.093l-.013.009-.448-.682-.001-.204a8.036 8.036 0 00-.034-.75c-.034-.239.138-.307.31-.376.173-.068.276-.408.276-.681v-.191a1.74 1.74 0 01.028-.368l.006-.02c.035-.103 0-.478-.103-.785-.103-.307.206-.238.206-.238l.13-.063c.105-.049.25-.112.335-.137l.017-.005c.096-.024.242-.13.322-.192l.057-.047.689-.34.058-.087c.11-.169.346-.55.424-.834zm37.23-4.618l.006.093c.03.52.068.398.243.704l.015.026c.192.347.321.459.538.303l.022-.016c.231-.18.495-.18.56-.501l.025-.116c.044-.198.067-.206.22-.207h.02c.188 0 .256-.032.348.088l.015.02c.098.143.164 0 .593.25.428.251.79.18 1.055.43.253.24.384.217.714.341l.044.017c.363.143.198-.072.528.322s.198.501.362.68c.165.18.297-.143.231.287-.056.367-.402.106-.068.403l.439.386c.497.441.605.55.8.702l.016.012c.23.18.395.394.198.394l-.187-.001c-.264-.004-.652-.023-.703-.107-.064-.102-.339-.173-.536-.399l-.025-.03c-.197-.25-.626-.43-.725-.644-.099-.215-.23-.287-.395-.287s-.33.215-.561.466c-.224.242-.137-.12-.403-.045l-.026.009c-.296.107-.626-.036-.79-.18-.16-.138-.135-.342-.37-.26l-.026.01c-.256.104-.418.04-.339-.158l.01-.02c.098-.216.032-.502.032-.502l.005-.019c.015-.071.059-.327-.114-.402l-.023-.009c-.23-.07-.23-.322-.461-.393-.231-.072-.594-.251-.594-.251l-.01-.001a.515.515 0 01-.08-.02l-.134-.047a8.352 8.352 0 00-.27-.075c-.264-.072-.462 0-.594-.18-.132-.178-.066-.429-.066-.429l.036.003c.109.007.406-.001-.036-.36l-.527-.43.008-.006a.079.079 0 00.025-.102c-.033-.072.329 0 .329 0l.016-.005c.15-.056.579-.364.61.256zM101 28.032l.096-.032.013.012a.528.528 0 00.402.116c.255-.032.446.513.606.705l.039.047c.138.163.246.26.568.466.344.22.32-.177.771.445l.122.168c.29.397.223.247.303.393l.174.32c.168.309.276.483.385.565.128.097.224.353.256.449.031.096.255.384.255.48v.026c.008.11.049.345-.128.552-.191.224-.351.256-.351.256l-.044-.023c-.104-.057-.365-.21-.467-.362-.122-.183-.273-.338-.482-.688l-.142-.242a21.06 21.06 0 00-.493-.8c-.128-.193-.32-.385-.415-.577l-.048-.1c-.116-.242-.32-.678-.43-.734-.122-.061-.157-.239-.354-.45l-.03-.03c-.223-.225-.191-.417-.287-.545l-.319-.417zM110.162 27l.179.074.049.022c.151.07.26.153.487.389.241.252.05.33.069.537l.002.023c.036.223-.107.298-.25.671-.143.373.036.485.179.784.143.298 0 .261.071.41.072.15-.178.112-.286.261-.107.15 0 .15-.035.411-.036.261-.286.336-.5.56-.215.224-.108.335-.072.373.035.037-.18.41-.286.41-.107 0-.143.075-.322.075-.178 0-.465-.112-.465-.112l-.182-.014c-.238-.017-.646-.036-.832.008l-.022.006c-.232.07-.341-.151-.47-.362l-.03-.049a2.46 2.46 0 01-.278-.602l-.008-.032c-.036-.149-.215-.56-.143-.709.07-.146-.135-.688.431-.426l.033.016c.597.293.332-.42.424-.412l.005.001c.108.038.286-.224.394-.709.107-.485.429-.522.571-.485.143.038.322-.149.501-.186.179-.038.643-.709.786-.933zM31.366-1.966l.021-.008c.334-.136.146.292.17.602l.007.076c.03.244.044.157.268.222l.052.016c.15.048.157.077.154.085l-.003.009c-.015.041-.098.286-.066.444l.006.027c.025.107.061.109.246.018l.227-.115c.41-.207.239 0 .82-.277.53-.252.379-.332.477-.318l.037.007c.171.035.308-.07.274.277-.034.346-.445.485-.684.623-.24.138-.65.104-.924.242-.274.139-.582.242-.822.52-.239.276-.239.034-.273-.07-.035-.104-.274-.207-.41-.277-.138-.069-.07.416-.07.416L30.868.6c-.016.094-.06.306-.164.437-.137.174-.548.139-.787.208-.24.07-1.061.45-1.54.623-.48.173-1.403 1.004-1.471 1.177-.069.173-.034.623.034.831.068.208.753.45.718.588-.03.121 1.628.4 2.056.469l.1.016-.308.312-.016.066c-.045.19-.158.732-.018.903.17.208.684.312.89.242.205-.069.376-.727.376-1.004s.445-.311.445-.311l.044-.027c.126-.075.508-.284.94-.348l.042-.006c.539-.068.084-.37.167-1.402l.004-.052c.103-1.073.308-.415.445-.485.137-.069.855-.727.992-.934.137-.208.616.104.821.104h.044c.23.01.718.091.846.415.137.346.205.208.103.45-.103.242.17.762.376.658l.449-.228c.299-.153.656-.336.82-.427l.065-.038c.171-.103.24 0 .342.035.074.025.042.247.018.37l-.018.08s.032.195-.058.646l-.01.046c-.103.485.034.416.171.52.133.1.105.168.352.582l.024.04c.274.45.171.035.308-.034.137-.07.308.243.48.38.16.13-.1.411-.134.447l-.004.004s-.273.208-.342.346c-.068.139-.547.416-.787.589s-.65.103-.958.103l-.108.001c-.436.007-1.584.047-2.081.172a5.88 5.88 0 00-1.13.416c-.136.07-.205.38 0 .346.206-.035.445.035.548 0l.023-.007c.166-.046.884-.193 1.174-.062.308.138-.17.242-.547.588-.37.34.118.313.46.41l.077.023c.282.082.281.04.763-.156l.144-.056c.314-.12.11-.001.233.091.116.089-.04.252-.09.299l-.013.013c-.005.007-.059.074-.507.228l-.04.014c-.514.173-.343.035-.582.07l-.03.004c-.203.039-.204.151-.784.62l-.042.033c-.63.503-.553.097-.423-.244l.013-.033c.132-.334-.277-.12.306-.476l.07-.043c.674-.41-.046-.08-.297-.003l-.01.003c-.231.067-.78.358-.972.38h-.021c-.16 0-.561.366-.893.64l-.065.053c-.308.25-.339.33-.342.57v.088c0 .311-.548.138-.65.138-.1 0-.715.294-.72.47l.001.015c.027.137-.268.34-.392.418l-.053.032s-.444.346-.479.484c-.034.139-.684.623-.718.9a.508.508 0 01-.224.372l-.016.01s-.485.336-.741.492l-.046.026c-.24.139-1.231.831-1.642 1.143-.398.302-.41.441-.348.67l.006.022c.067.236-.094.44.12 1.124l.017.053c.24.727-.103.935-.103.935l-.1.131a3.315 3.315 0 01-.208.25c-.086.087-.268-.265-.325-.38l-.018-.04c-.017-.038-.16-.39-.17-.949v-.05c0-.624-.137-.278-.137-.382 0-.097-.15-.103-.14-.189l.003-.018c.033-.1-.284-.136-.522-.326l-.025-.02c-.24-.208-.376-.035-.445-.139-.068-.104-.513.035-.513-.07 0-.1-.259.028-.525.449l-.022.037c-.274.45-.308.277-.48.242-.165-.034-.46.096-.54-.245l-.007-.032c-.067-.372-.493-.017-.672 0h-.012c-.171 0-.377.07-.616.138-.24.07-.48.243-.616.381-.137.139-.65.312-.753.45-.102.139-.205.485-.17.589.033.1-.351.752-.345.95l.002.02c.034.172-.342.9-.342 1.142 0 .242.069.761.205 1.003.137.243.856.623 1.027.658.17.035.684.07.684.07l.144-.071c.138-.067.345-.164.472-.207.164-.055.307-.354.445-.684l.102-.25c.171-.416.137-.173.342-.277.206-.104.548-.035.753.104.205.138.103.172.103.276 0 .081-.188.564-.303.854l-.297.74c-.13.33-.26.676-.221.656.068-.034.445-.138.752-.138.308 0 .787.035 1.027.173.23.134.048.17.066.297l.002.015c.035.138 0 .658-.102 1.073-.099.397.023.763.033 1.006l.001.032c0 .243.171.38.171.38l.054.063c.106.12.34.373.476.418l.018.005c.153.03.251.2.27.235l.003.007.24.346-.445-.138-.411-.312-.513-.104-.179-.161a5.125 5.125 0 00-.288-.245l-.044-.03a.445.445 0 01-.207-.359v-.035c0-.242-.07-.208-.103-.485-.034-.277-.274-.277-.377-.45-.102-.173-.205-.277-.342-.45-.137-.173-.205-.034-.342-.07l-.065-.015a.864.864 0 00-.24-.019h-.072c-.186 0-.317-.008-.478-.138-.171-.139-.342-.104-.513-.277-.171-.173-.274-.173-.377-.312-.095-.129-.28-.138-.388-.279l-.022-.032c-.099-.166-.323.018-.432-.028l-.013-.007c-.103-.069-.376.139-.376.139l-.084-.002a1.755 1.755 0 01-.311-.028l-.072-.022a5.802 5.802 0 00-.12-.034l-.2-.053s-.411-.07-.548-.138l-.034-.018a11.58 11.58 0 01-.479-.294l-.057-.023c-.116-.05-.377-.169-.447-.273l-.01-.015c-.065-.133-.508-.298-.574-.402l-.007-.014c-.034-.104-.513-.277-.513-.277l-.015-.04c-.033-.101-.108-.37-.054-.617.069-.312.137-.243.035-.52-.099-.265-.197-.276-.356-.612l-.02-.045c-.172-.381-.206-.485-.514-.97l-.057-.087c-.228-.34-.128-.048-.242-.243l-.009-.016c-.137-.242-.376-.83-.479-1.004l-.049-.081a1.29 1.29 0 01-.186-.597l-.01-.118c-.032-.32-.076-.245-.312-.681l-.024-.046c-.269-.509-.373-.087-.505-.004l-.009.004c-.137.07 0 .416.103.727l.06.183c.054.161.092.238.248.475.196.298.11.533.163.734l.008.028c.06.184.067.369.116.53l.02.058c.047.118.078.442.093.628l.008.11-.013-.044a1.892 1.892 0 01-.013-.047l-.022-.086c-.022-.085-.042-.124-.155-.353-.121-.245-.215-.3-.235-.31l-.004-.002-.206-.45-.017-.028a2.021 2.021 0 01-.253-.697l-.004-.036a1.97 1.97 0 00-.239-.727l-.018-.308c-.017-.332-.039-.826-.016-.939.034-.173-.274-.38-.513-.554-.24-.173-.343-.173-.48-.38-.136-.208-.307-.727-.376-1.108-.064-.36-.007-.874-.058-1.367l-.01-.087c-.069-.52.137-.416.376-.658.24-.242.377-.658.548-.9.17-.242.479-.589.718-.865.162-.188.34-.486.438-.66l.075-.137.171-.623.04-.005c.086-.013.298-.052.405-.133.134-.102-.259-1.538-.306-1.885l-.002-.019c-.034-.312 0-.312.069-.45.068-.138.17-1.28.068-1.696-.103-.416-.205-.208-.376-.45-.166-.236-.3.149-.37-.176l-.007-.032c-.067-.374-.332-.214-1.313-.437l-.354-.082c-.612-.139-.34-.046-.563-.067l-.17-.018c-.003.001.084.014.017.016h-.079c-.098-.004-.174-.019-.343-.104-.19-.096-.467.044-.724.202l-.063.04c-.262.166-.274.078-.454.191l-.083.055c-.102.066-.118.061-.13-.004l-.018-.103c-.034-.173.171-.312-.137-.208-.307.104-.41.311-.615.45-.194.13-.51.169-.833.318l-.057.028c-.342.173-.582-.034-.992.242l-.047.031c-.338.217-.23.012-.046-.24l.024-.033c.206-.277-.17-.034-.136-.138.034-.104-.343-.208-.65-.312-.308-.104.102-.138-.035-.242L4.06 2.75c-.1-.084-.044-.108.018-.43l.006-.036c.069-.38.206-.173.548-.519.332-.336.31-.183.652-.205l.426-.039c.24-.022.453-.045.564-.067.171-.035.41-.208.684-.554l.034-.044c.213-.288-.077-.131-.273-.164-.205-.035-.377.173-.445.277-.068.104-.547-.208-.616-.346-.068-.139.24-.347.41-.45.166-.1.552-.04.917.088l.113.041c.291.105.364.112.373.113l.034-.029c.08-.066.267-.235.24-.317-.033-.1-.002-.264-.243-.43l-.03-.02c-.274-.174.547-.381.718-.485.171-.104.821-.173.992-.139.171.035 1.027-.45 1.198-.346.166.101 1.209-.093 1.39-.071l.013.002c.137.035 1.266-.242 1.813-.277.487-.03.838-.007 1.343-.001l.197.001c.603 0 .19.199.46.435l.019.015c.297.234.211.307.328.342l.054.015c.065.018-.027.012.062.162.103.173.719.173.993.139.273-.035 1.129-.381 1.71-.485.582-.104 1.335-.138 1.609-.173.273-.035.992.242.992.242l1.07.037c.585.022 1.204.05 1.257.067.102.035-.103.312 0 .312.097 0 .286.155.568.171l.047.002c.308 0 .582.173.685.138.099-.033.39.42.41.355V.068c0-.104.308-.38.513-.588.198-.2.458-.048.691-.066l.028-.004c.24-.034 1.163-.034 1.471 0 .308.035.548.243.719.243.17 0 .205.034.41.207.202.17.997-.527 1.253-1.208l.013-.038c.235-.678.535-.46.869-.58zm10.512-5.012l.294.052c.42.072.605.083 1.146.174.594.1.758-.04 1.275.088l.059.016c.564.155.82.103 1.282.103h1.436c.718 0 1.385-.414 1.642-.155.245.248.397.164 1.175.247l.107.012c.849.101 1.212-.093 1.562-.007l.028.007c.347.1.933-.041 1.619-.005l.074.005c.718.052 1.077-.052 1.333-.052.25 0 .499-.343.843-.076l.03.024c.35.304.798-.083.867.283l.004.029c.046.366.571.166.234.329l-.5.235c-.33.16-.34.193-.708.524-.462.415.307.778-.667 1.141-.975.363-1.129-.207-1.385.415-.257.622 0 .778-.051 1.089-.04.239-.11.325-.28.47l-.182.152c-.308.259-.308 0-1.026.155l-.145.032c-.643.145-1.107.28-1.394.28-.307 0-.974.259-1.18.362-.205.104.36.26-.718.57l-.12.035c-.976.273-1.225.241-1.52.64-.298.4-.213.463-.392.7l-.02.026c-.204.259-.82 1.296-1.128 1.037-.307-.26-.461-.208-.718-.467-.256-.26-.41-.622-.564-.83-.154-.207-.205-.725-.257-1.037-.05-.31-.513-1.036 0-.933.513.104.821.052.975-.052.154-.103.308-.466.308-.466l-.008-.07c-.018-.154-.072-.536-.184-.783l-.013-.029c-.154-.31-.052-.57-.308-.881l-.053-.063c-.205-.242-.23-.22-.563-.507-.348-.303-.262-.458-.774-.514l-.046-.005c-.547-.05-.708-.198-.905-.16l-.019.005c-.205.051-.872-.363-.154-.415l.094-.006a6.987 6.987 0 011.291.058l.126-.06c.234-.113.7-.355.507-.403l-.017-.004c-.302-.05.435-.503-.22-.37l-.249.054c-.232.052-.467.107-.683.159l-.849.209c-.197.05-.681.1-1.176.243l-.055.016c-.512.156-1.128.104-1.436.467-.307.363 0 .415-.307.363-.297-.05.217-.342-.391-.036l-.154.078c-.593.303-.458.268-.748.177l-.04-.012a2.82 2.82 0 01-.617-.26l.066-.009c.098-.017.223-.055-.27-.094l-.178-.014c-.464-.038-.51-.065-.708-.303l-.038-.046c-.256-.311-.102-.311.051-.415a.924.924 0 00.257-.31l2.052-.26.064-.002c.183-.007.719-.045 1.013-.257l.033-.025c.277-.215.05-.239.803-.394l.35-.07c.879-.178.713-.271 1.118-.204zM34.801-3l.387.38.037-.013c.099-.033.409-.128 1.069-.258l.108-.02c.71-.13.793-.027 1.19.219l.234.144c.248.15.337.166 1.012.254.72.095.358.515.25.625l-.028.027.719.706L40-.23l-.221.434-.051-.03c-.123-.07-.437-.241-.613-.241h-.05c-.13.007.08.075.382.814.332.815-.609.11-.609.11l-.028.008c-.11.04-.497.218-.11.667l.028.03c.49.535-.468.49-.814.333l-.016-.007c-.332-.163-1.051-.435-1.438-.706-.38-.266-.175-.48.352-.641l.035-.01c.553-.164.609-.327.774-.49.145-.141-.003-.528-.226-1.055l-.13-.305c-.242-.556-.182-.133-1.356-.521l-.057-.02c-1.273-.434-.885.11-1.217.272-.332.163-.443-.434-.609-.597-.158-.156.438-.509.734-.776L34.8-3zm-10.32-.966c.316.19.792-.143 1.162.142l.237.183c.305.232.622.456.873.531.305.092.659-.213.968-.11l.037.015c.312.14 1.396-.69 1.224-.075l-.009.028c-.211.666.265.856-.317.904-.581.048-1.216.428-1.48.286l-.125-.068c-.213-.113-.42-.187-.774-.028-.423.19-.211.19-.687.096-.46-.093-.574.083-.677-.036l-.01-.012c-.106-.143-.423-.095-.37-.524l.008-.055c.057-.36.183-.327-.093-.325h-.021c-.301 0-.555.043-.76-.076l-.033-.02c-.211-.142-.634-.095-.634-.095l.041-.037c.344-.301 1.135-.907 1.44-.724z" id="e"/>
  </defs>
  <g fill="none" fill-rule="evenodd">
    <circle fill="url(#a)" cx="24" cy="24" r="24"/>
    <mask id="c" fill="#fff">
      <use xlink:href="#b"/>
    </mask>
    <use fill="#6EA3FF" fill-rule="nonzero" xlink:href="#b"/>
    <g fill-rule="nonzero" mask="url(#c)">
      <use fill="#000" filter="url(#d)" xlink:href="#e"/>
      <use fill="#FFF" xlink:href="#e"/>
    </g>
  </g>
</svg>
