<svg width="48" height="48" xmlns="http://www.w3.org/2000/svg">
  <defs>
    <linearGradient x1="50%" y1="0%" x2="50%" y2="100%" id="a">
      <stop stop-color="#0C5CE5" offset="0%"/>
      <stop stop-color="#0853D3" offset="100%"/>
    </linearGradient>
  </defs>
  <g fill="none" fill-rule="evenodd">
    <circle fill="url(#a)" cx="24" cy="24" r="24"/>
    <path d="M24 16a8.001 8.001 0 017.96 7.192 1 1 0 00.806.882 3.999 3.999 0 01-.592 7.922L31.98 32H17a5 5 0 01-4.908-5.959l-.015.082a4.5 4.5 0 01.041-.208l-.026.126c.015-.075.031-.149.049-.223l-.023.097c.016-.074.034-.148.054-.22l-.031.123c.014-.058.03-.116.046-.174h-.001a5.09 5.09 0 01.4-.994l-.027.05a4.99 4.99 0 01.11-.201l-.083.15a5.125 5.125 0 01.411-.647 5.03 5.03 0 011.086-1.063h-.001c.17-.122.347-.233.531-.334l-.037.02c.058-.032.116-.063.176-.093l-.139.073a5.24 5.24 0 01.183-.094l-.044.02c.059-.029.119-.058.18-.085l-.136.065c.066-.033.134-.064.202-.094l-.066.029a4.97 4.97 0 01.185-.08l-.119.05c.073-.031.147-.061.222-.09l-.103.04c.063-.025.125-.05.189-.072l-.086.032c.062-.023.124-.046.186-.067l-.1.035c.073-.027.147-.051.222-.074l-.122.04A5.012 5.012 0 0117 22a5 5 0 015 5 1 1 0 002 0 7 7 0 00-7-7l.068.001A8.004 8.004 0 0124 16z" fill="#FFF" fill-rule="nonzero"/>
  </g>
</svg>
